<svg xmlns="http://www.w3.org/2000/svg" width="22" height="24" viewBox="0 0 22 24" fill="none">
  <path d="M14.2219 21.0725V20.8879L14.0109 21.0725V5.1956C14.0109 3.63076 13.7033 2.43516 13.0879 1.60878C12.4725 0.764829 11.5494 0.342851 10.3186 0.342851C8.94721 0.342851 7.94501 0.668126 7.31205 1.31868C6.67908 1.96922 6.3626 2.64615 6.3626 3.34944V5.16922C6.3626 5.8901 6.11644 6.48791 5.62414 6.96263C5.14941 7.41977 4.55161 7.64835 3.83073 7.64835C3.28567 7.64835 2.82853 7.47252 2.4593 7.12087C2.10765 6.75164 1.93183 6.21538 1.93183 5.51208C1.93183 4.63296 2.26589 3.77142 2.93403 2.92747C3.61974 2.08351 4.62194 1.389 5.94062 0.84395C7.27688 0.298895 8.91205 0.0263672 10.8461 0.0263672C13.5011 0.0263672 15.4703 0.615378 16.7538 1.7934C18.0549 2.95384 18.7055 4.57142 18.7055 6.64615V20.6505C18.7055 21.3714 18.8197 21.8901 19.0483 22.2066C19.2945 22.5055 19.5934 22.6549 19.945 22.6549C20.2615 22.6549 20.5428 22.5582 20.789 22.3648C21.0527 22.1714 21.2022 21.8813 21.2373 21.4945C21.2549 21.4242 21.2725 21.3802 21.2901 21.3626C21.3252 21.345 21.3516 21.3363 21.3692 21.3363C21.4219 21.3363 21.4483 21.345 21.4483 21.3626C21.4659 21.3802 21.4747 21.4242 21.4747 21.4945C21.4747 21.7758 21.3516 22.1099 21.1055 22.4967C20.8593 22.8835 20.4637 23.2176 19.9186 23.4989C19.3736 23.7978 18.6527 23.9472 17.756 23.9472C16.5604 23.9472 15.6725 23.6835 15.0923 23.156C14.512 22.6286 14.2219 21.9341 14.2219 21.0725ZM0.665894 18.4352C0.665894 16.6418 1.41315 15.1736 2.90765 14.0308C4.40216 12.8879 6.67908 12.3165 9.73842 12.3165C10.9868 12.3165 12.0153 12.4308 12.8241 12.6593C13.6329 12.8879 14.3802 13.1692 15.0659 13.5033L14.9077 13.6879C14.2219 13.3714 13.5011 13.1165 12.745 12.9231C12.0066 12.7297 11.1802 12.633 10.2659 12.633C8.68348 12.633 7.47908 13.0901 6.65271 14.0044C5.82633 14.9187 5.41315 16.1582 5.41315 17.7231C5.41315 19.2527 5.79996 20.4483 6.57359 21.3099C7.36479 22.1714 8.40216 22.6022 9.68567 22.6022C10.5648 22.6022 11.4351 22.4088 12.2967 22.022C13.1582 21.6352 13.8791 21.0725 14.4593 20.3341L14.6967 20.4923C13.923 21.6176 12.8681 22.4791 11.5318 23.0769C10.1956 23.6747 8.75381 23.9736 7.20655 23.9736C5.2549 23.9736 3.67249 23.4637 2.4593 22.444C1.2637 21.4066 0.665894 20.0703 0.665894 18.4352Z" fill="#BF4C9A"/>
</svg>