<svg xmlns="http://www.w3.org/2000/svg" width="19" height="24" viewBox="0 0 19 24" fill="none">
  <path d="M7.5846 11.0769C7.5846 8.70323 7.90987 6.71641 8.56042 5.11641C9.22855 3.51641 10.0725 2.31202 11.0923 1.50323C12.1297 0.694435 13.1934 0.290039 14.2835 0.290039C15.5318 0.290039 16.4901 0.668061 17.1582 1.42411C17.8439 2.16257 18.1868 3.18235 18.1868 4.48345C18.1868 5.48564 17.9494 6.24169 17.4747 6.75158C17.0176 7.26147 16.4373 7.51641 15.734 7.51641C15.0659 7.51641 14.556 7.3318 14.2044 6.96257C13.8703 6.57575 13.6857 5.99553 13.6505 5.22191V4.48345C13.6329 3.86806 13.5011 3.41092 13.2549 3.11202C13.0088 2.81312 12.5956 2.66367 12.0154 2.66367C11.3297 2.66367 10.6703 2.98015 10.0373 3.61312C9.40438 4.24608 8.87691 5.19553 8.45493 6.46147C8.05053 7.7274 7.84833 9.30103 7.84833 11.1823L7.5846 11.0769ZM7.84833 0.791139V22.2593C7.84833 22.4527 7.90108 22.6197 8.00658 22.7604C8.12965 22.8834 8.29669 22.9714 8.50767 23.0241L11.1187 23.3933C11.2066 23.4109 11.2681 23.4285 11.3033 23.4461C11.3384 23.4637 11.356 23.4988 11.356 23.5516C11.356 23.6043 11.3384 23.6483 11.3033 23.6834C11.2681 23.701 11.2066 23.7098 11.1187 23.7098H0.806576C0.736247 23.7098 0.674708 23.6922 0.621961 23.6571C0.586796 23.6219 0.569214 23.5867 0.569214 23.5516C0.569214 23.4988 0.595587 23.4549 0.648335 23.4197C0.701082 23.3845 0.780203 23.3582 0.885697 23.3406L2.54724 23.1296C2.77581 23.0769 2.93405 22.9977 3.02196 22.8922C3.12746 22.7692 3.1802 22.6285 3.1802 22.4703V2.82191C3.1802 2.734 3.15383 2.66367 3.10108 2.61092C3.06592 2.54059 2.99559 2.50542 2.89009 2.50542H0.780203C0.727456 2.50542 0.6835 2.48784 0.648335 2.45268C0.61317 2.41751 0.595587 2.38235 0.595587 2.34718C0.595587 2.29444 0.61317 2.25048 0.648335 2.21531C0.6835 2.18015 0.745038 2.15378 0.83295 2.13619L7.16262 0.58015C7.2857 0.544984 7.37361 0.527402 7.42636 0.527402C7.49669 0.50982 7.55822 0.501028 7.61097 0.501028C7.69888 0.501028 7.76042 0.536193 7.79559 0.606523C7.83075 0.659271 7.84833 0.72081 7.84833 0.791139Z" fill="#BF4C9A"/>
</svg>