<svg xmlns="http://www.w3.org/2000/svg" width="21" height="24" viewBox="0 0 21 24" fill="none">
  <path d="M20.7604 9.57363C20.7604 9.6967 20.7165 9.8022 20.6285 9.89011C20.5406 9.97802 20.4176 10.022 20.2593 10.022H3.98678V9.62637H15.6703C15.934 9.62637 16.0659 9.47692 16.0659 9.17802C16.0659 6.25934 15.6 4.06154 14.6681 2.58461C13.7362 1.10769 12.5582 0.369231 11.134 0.369231C9.88568 0.369231 8.82195 0.756044 7.94283 1.52967C7.06371 2.28571 6.38678 3.4022 5.91206 4.87912C5.43733 6.35604 5.19997 8.14945 5.19997 10.2593C5.19997 13.8813 5.9736 16.633 7.52085 18.5143C9.08568 20.3956 11.0989 21.3363 13.5604 21.3363C15.3187 21.3363 16.8219 20.8264 18.0703 19.8066C19.3362 18.7868 20.0923 17.3978 20.3384 15.6396C20.3384 15.5692 20.3472 15.5253 20.3648 15.5077C20.4 15.4725 20.4263 15.4549 20.4439 15.4549C20.4967 15.4549 20.5406 15.4725 20.5758 15.5077C20.611 15.5253 20.6197 15.5868 20.6022 15.6923C20.4615 17.2747 19.9604 18.6989 19.0989 19.9648C18.2549 21.2132 17.1472 22.1978 15.7758 22.9187C14.4219 23.6396 12.9011 24 11.2132 24C9.15601 24 7.34502 23.5341 5.78019 22.6022C4.23294 21.6703 3.02854 20.3429 2.167 18.6198C1.30546 16.8967 0.874695 14.8747 0.874695 12.5538C0.874695 10.1275 1.32305 7.97363 2.21975 6.09231C3.11645 4.19341 4.3736 2.70769 5.99118 1.63516C7.60876 0.545055 9.50766 0 11.6879 0C13.534 0 15.134 0.413187 16.4879 1.23956C17.8417 2.06593 18.8879 3.2 19.6263 4.64176C20.3824 6.08352 20.7604 7.72747 20.7604 9.57363Z" fill="#BF4C9A"/>
</svg>