<svg xmlns="http://www.w3.org/2000/svg" width="26" height="24" viewBox="0 0 26 24" fill="none">
  <path d="M7.72746 0.659271V22.3648C7.72746 22.5758 7.7802 22.7428 7.8857 22.8659C7.99119 22.9889 8.14943 23.0769 8.36042 23.1296L10.022 23.367C10.1978 23.3845 10.2857 23.4461 10.2857 23.5516C10.2857 23.6571 10.2154 23.7098 10.0747 23.7098H0.606576C0.571411 23.7098 0.536246 23.701 0.501081 23.6834C0.465916 23.6483 0.448334 23.6043 0.448334 23.5516C0.448334 23.534 0.465916 23.5076 0.501081 23.4725C0.536246 23.4373 0.588993 23.4109 0.659323 23.3933L2.42636 23.1296C2.65493 23.0769 2.81317 22.9889 2.90108 22.8659C3.00658 22.7428 3.05932 22.5845 3.05932 22.3911V2.90103C3.05932 2.81312 3.03295 2.74279 2.9802 2.69004C2.94504 2.63729 2.86592 2.61092 2.74284 2.61092H0.685696C0.632949 2.61092 0.588993 2.59334 0.553828 2.55817C0.518663 2.52301 0.501081 2.48784 0.501081 2.45268C0.501081 2.38235 0.518663 2.33839 0.553828 2.32081C0.588993 2.28564 0.64174 2.25927 0.71207 2.24169L7.04174 0.474655C7.1824 0.439491 7.2791 0.421909 7.33185 0.421909C7.3846 0.404325 7.43735 0.395534 7.49009 0.395534C7.578 0.395534 7.63954 0.421908 7.67471 0.474655C7.70987 0.527403 7.72746 0.588942 7.72746 0.659271ZM7.35822 5.51202L7.14723 5.27465L8.04394 4.45707C9.71427 2.94498 11.1384 1.87246 12.3165 1.23949C13.5121 0.606523 14.6637 0.290039 15.7714 0.290039C17.389 0.290039 18.6461 0.826303 19.5428 1.89883C20.4571 2.95378 21.0725 4.58894 21.389 6.80433L23.4461 22.1538C23.4813 22.4351 23.5604 22.6725 23.6835 22.8659C23.8242 23.0417 24.0439 23.1472 24.3428 23.1823L25.7406 23.3933C25.8286 23.4109 25.8901 23.4373 25.9253 23.4725C25.9604 23.49 25.978 23.5164 25.978 23.5516C25.978 23.6043 25.9604 23.6483 25.9253 23.6834C25.8901 23.701 25.8373 23.7098 25.767 23.7098H16.1406C15.9824 23.7098 15.9033 23.6571 15.9033 23.5516C15.9033 23.4812 16 23.4197 16.1934 23.367L17.9077 23.1296C18.2242 23.0769 18.4351 22.9626 18.5406 22.7867C18.6637 22.5933 18.7077 22.3823 18.6725 22.1538L16.7736 7.27905C16.5275 5.57356 16.1055 4.3252 15.5077 3.534C14.9275 2.74279 14.0659 2.34718 12.9231 2.34718C12.167 2.34718 11.411 2.54059 10.6549 2.9274C9.91647 3.31422 9.10767 3.91202 8.22855 4.72081L7.35822 5.51202Z" fill="#BF4C9A"/>
</svg>
