<svg xmlns="http://www.w3.org/2000/svg" width="10" height="24" viewBox="0 0 10 24" fill="none">
  <path fill-rule="evenodd" clip-rule="evenodd" d="M3.40293 4.52444C3.87281 5.02463 4.4791 5.27472 5.2218 5.27472C5.96451 5.27472 6.57838 5.02463 7.06341 4.52444C7.54844 4.00909 7.79096 3.38007 7.79096 2.63736C7.79096 1.90981 7.54844 1.28837 7.06341 0.773021C6.59353 0.257674 5.97967 0 5.2218 0C4.50941 0 3.9107 0.257674 3.42567 0.773021C2.95579 1.27321 2.72086 1.89466 2.72086 2.63736C2.72086 3.38007 2.94821 4.00909 3.40293 4.52444ZM7.44172 22.6549L7.49447 8.09662C7.49447 8.02629 7.47688 7.96476 7.44172 7.91201C7.40655 7.85926 7.34502 7.83289 7.2571 7.83289C7.23073 7.83289 7.19776 7.83948 7.16479 7.84607C7.13183 7.85267 7.09886 7.85926 7.07249 7.85926C7.01974 7.85926 6.94942 7.87684 6.80878 7.912L6.80875 7.91201L0.479081 9.67904C0.408751 9.69662 0.356004 9.723 0.320839 9.75816C0.285674 9.77574 0.268092 9.8197 0.268092 9.89003C0.268092 9.9252 0.285674 9.96036 0.320839 9.99552C0.356004 10.0307 0.39996 10.0483 0.452707 10.0483H2.50985C2.63293 10.0483 2.71205 10.0746 2.74721 10.1274C2.79996 10.1801 2.82633 10.2505 2.82633 10.3384L2.77359 22.6812C2.77359 22.8746 2.72084 23.0329 2.61535 23.156C2.52743 23.279 2.36919 23.367 2.14062 23.4197L0.373587 23.6834C0.303257 23.701 0.25051 23.7274 0.215345 23.7626C0.18018 23.7977 0.162598 23.8241 0.162598 23.8417C0.162598 23.8944 0.18018 23.9384 0.215345 23.9735C0.25051 23.9911 0.285675 23.9999 0.320839 23.9999H9.78897C9.8593 23.9999 9.91205 23.9911 9.94721 23.9735C9.98238 23.9384 9.99996 23.8944 9.99996 23.8417C9.99996 23.7889 9.98238 23.7538 9.94721 23.7362C9.91205 23.701 9.84172 23.6746 9.73622 23.6571L8.07469 23.4197C7.8637 23.367 7.70546 23.279 7.59996 23.156C7.49447 23.0329 7.44172 22.8659 7.44172 22.6549Z" fill="#BF4C9A"/>
</svg>