<svg xmlns="http://www.w3.org/2000/svg" width="39" height="41" viewBox="0 0 39 41" fill="none">
  <path d="M19.1673 40.0508L22.8605 30.0185C23.4611 28.387 23.7615 27.5713 24.2284 26.8852C24.6423 26.277 25.1509 25.7457 25.733 25.3133C26.3897 24.8254 27.1705 24.5117 28.732 23.8842L38.3346 20.0256L28.732 16.167C27.1705 15.5396 26.3897 15.2258 25.733 14.7379C25.1509 14.3055 24.6423 13.7742 24.2284 13.1661C23.7615 12.4799 23.4612 11.6642 22.8606 10.0328L19.1673 0.000465393L15.474 10.0328C14.8734 11.6642 14.5731 12.4799 14.1061 13.1661C13.6922 13.7742 13.1837 14.3055 12.6016 14.7379C11.9449 15.2258 11.1641 15.5396 9.60251 16.167L0 20.0256L9.60251 23.8842C11.1641 24.5117 11.9448 24.8254 12.6016 25.3133C13.1837 25.7457 13.6922 26.277 14.1061 26.8852C14.5731 27.5713 14.8734 28.387 15.474 30.0185L19.1673 40.0508Z" fill="url(#paint0_linear_1013_4403)"/>
  <defs>
    <linearGradient id="paint0_linear_1013_4403" x1="38.3781" y1="-0.203952" x2="-1.20958" y2="1.02298" gradientUnits="userSpaceOnUse">
      <stop stop-color="#994D80"/>
      <stop offset="1" stop-color="#E65CB8"/>
    </linearGradient>
  </defs>
</svg>