<svg xmlns="http://www.w3.org/2000/svg" width="48" height="52" viewBox="0 0 48 52" fill="none">
  <path d="M23.9591 0L28.5757 12.7957C29.3264 14.8765 29.7018 15.917 30.2855 16.7921C30.8029 17.5677 31.4386 18.2454 32.1662 18.7969C32.9871 19.4192 33.9631 19.8194 35.9151 20.6197L47.9182 25.5411L35.9151 30.4626C33.9631 31.2629 32.9871 31.663 32.1662 32.2853C31.4386 32.8368 30.8029 33.5145 30.2855 34.2901C29.7018 35.1653 29.3264 36.2057 28.5757 38.2865L23.9591 51.0823L19.3425 38.2865C18.5918 36.2057 18.2164 35.1653 17.6326 34.2901C17.1153 33.5145 16.4796 32.8368 15.752 32.2853C14.9311 31.663 13.9551 31.2629 12.0031 30.4626L0 25.5411L12.0031 20.6197C13.9551 19.8194 14.9311 19.4192 15.752 18.7969C16.4796 18.2454 17.1153 17.5677 17.6326 16.7921C18.2164 15.917 18.5918 14.8765 19.3425 12.7957L23.9591 0Z" fill="url(#paint0_linear_1013_4404)"/>
  <defs>
    <linearGradient id="paint0_linear_1013_4404" x1="47.9726" y1="51.343" x2="-1.51386" y2="49.8399" gradientUnits="userSpaceOnUse">
      <stop stop-color="#994D80"/>
      <stop offset="1" stop-color="#E65CB8"/>
    </linearGradient>
  </defs>
</svg>