<svg xmlns="http://www.w3.org/2000/svg" width="87" height="92" viewBox="0 0 87 92" fill="none">
  <path d="M43.1264 0L51.4362 23.0323C52.7876 26.7778 53.4633 28.6505 54.514 30.2258C55.4452 31.6219 56.5895 32.8417 57.8991 33.8345C59.3768 34.9546 61.1336 35.6749 64.6471 37.1155L86.2527 45.974L64.6471 54.8326C61.1336 56.2732 59.3768 56.9935 57.8991 58.1136C56.5895 59.1063 55.4452 60.3261 54.514 61.7223C53.4633 63.2975 52.7876 65.1703 51.4362 68.9158L43.1264 91.9481L34.8165 68.9158C33.4652 65.1703 32.7895 63.2975 31.7388 61.7222C30.8075 60.3261 29.6633 59.1063 28.3536 58.1136C26.8759 56.9935 25.1192 56.2732 21.6057 54.8326L0 45.974L21.6056 37.1155C25.1192 35.6749 26.8759 34.9546 28.3536 33.8345C29.6633 32.8417 30.8075 31.6219 31.7388 30.2258C32.7895 28.6505 33.4652 26.7778 34.8165 23.0323L43.1264 0Z" fill="url(#paint0_linear_1013_4402)"/>
  <defs>
    <linearGradient id="paint0_linear_1013_4402" x1="86.3507" y1="92.4174" x2="-2.72494" y2="89.7117" gradientUnits="userSpaceOnUse">
      <stop stop-color="#994D80"/>
      <stop offset="1" stop-color="#E65CB8"/>
    </linearGradient>
  </defs>
</svg>