<svg xmlns="http://www.w3.org/2000/svg" width="24" height="24" viewBox="0 0 24 24" fill="none">
  <path d="M11.9504 0C12.2391 0 12.4731 0.234026 12.4731 0.522711V1.30678H13.2572C13.5458 1.30678 13.7799 1.5408 13.7799 1.82949C13.7799 2.11818 13.5458 2.3522 13.2572 2.3522H12.4731V3.13627C12.4731 3.42495 12.2391 3.65898 11.9504 3.65898C11.6617 3.65898 11.4277 3.42495 11.4277 3.13627V2.3522H10.6436C10.3549 2.3522 10.1209 2.11818 10.1209 1.82949C10.1209 1.5408 10.3549 1.30678 10.6436 1.30678H11.4277V0.522711C11.4277 0.234026 11.6617 0 11.9504 0Z" fill="#1A1A1A"/>
  <path fill-rule="evenodd" clip-rule="evenodd" d="M18.3934 0.522711C18.6097 0.522711 18.8037 0.655913 18.8813 0.85778L19.7878 3.21461C19.9448 3.62287 19.9941 3.74052 20.0616 3.83544C20.1294 3.93068 20.2126 4.0139 20.3078 4.08162C20.4027 4.14911 20.5204 4.19846 20.9286 4.35548L23.2855 5.26195C23.4873 5.3396 23.6205 5.53354 23.6205 5.74983C23.6205 5.96611 23.4873 6.16005 23.2855 6.2377L20.9286 7.14417C20.5204 7.30119 20.4027 7.35054 20.3078 7.41803C20.2126 7.48575 20.1294 7.56896 20.0616 7.66421C19.9941 7.75913 19.9448 7.87677 19.7878 8.28504L18.8813 10.6419C18.8037 10.8437 18.6097 10.9769 18.3934 10.9769C18.1772 10.9769 17.9832 10.8437 17.9056 10.6419L16.9991 8.28504C16.8421 7.87677 16.7927 7.75913 16.7252 7.66421C16.6575 7.56897 16.5743 7.48575 16.479 7.41803C16.3841 7.35054 16.2665 7.30119 15.8582 7.14417L13.5014 6.2377C13.2995 6.16005 13.1663 5.96611 13.1663 5.74983C13.1663 5.53354 13.2995 5.3396 13.5014 5.26195L15.8582 4.35548C16.2665 4.19846 16.3841 4.14911 16.479 4.08162C16.5743 4.0139 16.6575 3.93068 16.7252 3.83544C16.7927 3.74052 16.8421 3.62287 16.9991 3.21461L17.9056 0.85778C17.9832 0.655913 18.1771 0.522711 18.3934 0.522711ZM18.3934 2.50153L17.9543 3.64326C17.827 3.97479 17.7308 4.22523 17.5772 4.44126C17.4418 4.63174 17.2754 4.79817 17.0849 4.93361C16.8688 5.08722 16.6184 5.1834 16.2869 5.31072L15.1451 5.74982L16.2869 6.18893C16.6184 6.31625 16.8688 6.41243 17.0849 6.56604C17.2754 6.70148 17.4418 6.86791 17.5772 7.05839C17.7308 7.27441 17.827 7.52484 17.9543 7.85637L18.3934 8.99812L18.8325 7.85639C18.9599 7.52486 19.056 7.27442 19.2096 7.05839C19.3451 6.86791 19.5115 6.70148 19.702 6.56604C19.918 6.41243 20.1684 6.31626 20.5 6.18894L21.6417 5.74983L20.5 5.31072C20.1685 5.1834 19.918 5.08722 19.702 4.93361C19.5115 4.79817 19.3451 4.63174 19.2096 4.44126C19.056 4.22523 18.9599 3.9748 18.8325 3.64326L18.3934 2.50153Z" fill="#1A1A1A"/>
  <path d="M11.9504 8.84067C12.2391 8.84067 12.4731 9.0747 12.4731 9.36338V10.1474H13.2572C13.5458 10.1474 13.7799 10.3815 13.7799 10.6702C13.7799 10.9588 13.5458 11.1929 13.2572 11.1929H12.4731V11.9769C12.4731 12.2656 12.2391 12.4996 11.9504 12.4996C11.6617 12.4996 11.4277 12.2656 11.4277 11.9769V11.1929H10.6436C10.3549 11.1929 10.1209 10.9588 10.1209 10.6702C10.1209 10.3815 10.3549 10.1474 10.6436 10.1474H11.4277V9.36338C11.4277 9.0747 11.6617 8.84067 11.9504 8.84067Z" fill="#1A1A1A"/>
  <path d="M17.4864 11.9273C18.1162 11.9273 18.6342 12.4399 18.5557 13.0648C18.3796 14.4663 17.8797 15.8132 17.0892 16.9962C16.8796 17.3099 16.6515 17.6092 16.4065 17.8927C16.4332 17.9149 16.4592 17.9386 16.4843 17.9637L20.5737 22.0531C21.0191 22.4985 21.0191 23.2206 20.5737 23.666C20.1283 24.1113 19.4062 24.1113 18.9609 23.666L14.8714 19.5765C14.818 19.5231 14.7709 19.4656 14.7303 19.4052C14.1907 19.7824 13.6091 20.102 12.9946 20.3565C11.3275 21.0471 9.49303 21.2277 7.7232 20.8757C5.95338 20.5237 4.3277 19.6547 3.05173 18.3787C1.77576 17.1028 0.906808 15.4771 0.554769 13.7073C0.202729 11.9374 0.383409 10.103 1.07396 8.43584C1.76451 6.7687 2.93392 5.34378 4.4343 4.34125C5.61732 3.55078 6.96421 3.05092 8.36563 2.87482C8.99057 2.79629 9.50315 3.31424 9.50315 3.94409C9.50315 4.57395 8.98907 5.07488 8.36794 5.17937C7.41853 5.3391 6.50911 5.69815 5.70151 6.23777C4.57622 6.98966 3.69917 8.05836 3.18126 9.30871C2.66334 10.5591 2.52783 11.9349 2.79186 13.2623C3.05589 14.5896 3.7076 15.8089 4.66458 16.7659C5.62156 17.7229 6.84082 18.3746 8.16819 18.6386C9.49556 18.9026 10.8714 18.7671 12.1218 18.2492C13.3721 17.7313 14.4408 16.8542 15.1927 15.729C15.7323 14.9214 16.0914 14.0119 16.2511 13.0625C16.3556 12.4414 16.8565 11.9273 17.4864 11.9273Z" fill="#1A1A1A"/>
</svg>