<svg width="29" height="35" viewBox="0 0 29 35" fill="none" xmlns="http://www.w3.org/2000/svg">
<g id="apple_logo.svg" clip-path="url(#clip0_914_7440)">
<g id="Group">
<path id="Vector" d="M27.7355 11.9853C25.4218 13.4151 23.9927 15.866 23.9927 18.5894C23.9927 21.6531 25.8301 24.4445 28.6201 25.6019C28.0757 27.372 27.2591 29.006 26.2384 30.5038C24.7413 32.6144 23.1761 34.7931 20.8624 34.7931C18.5487 34.7931 17.8682 33.4314 15.1462 33.4314C12.4923 33.4314 11.5396 34.8611 9.36199 34.8611C7.18439 34.8611 5.68729 32.8867 3.98604 30.4358C1.74039 27.0316 0.447445 23.0828 0.379395 18.9298C0.379395 12.1896 4.73459 8.58118 9.08979 8.58118C11.4035 8.58118 13.3089 10.079 14.7379 10.079C16.0989 10.079 18.2765 8.5131 20.8624 8.5131C23.5844 8.44502 26.1703 9.73859 27.7355 11.9853ZM19.6375 5.65362C20.7944 4.29197 21.4068 2.5899 21.4749 0.819744C21.4749 0.615496 21.4749 0.343164 21.4068 0.138916C19.4334 0.343164 17.596 1.29632 16.3031 2.79414C15.1462 4.08772 14.4657 5.7217 14.3977 7.49186C14.3977 7.69611 14.3977 7.90035 14.4657 8.1046C14.6018 8.1046 14.806 8.17268 14.9421 8.17268C16.7794 8.03652 18.4807 7.08336 19.6375 5.65362Z" fill="#262626"/>
</g>
</g>
<defs>
<clipPath id="clip0_914_7440">
<rect width="28.2407" height="34.7222" fill="white" transform="translate(0.379395 0.138916)"/>
</clipPath>
</defs>
</svg>
