<svg width="35" height="35" viewBox="0 0 35 35" fill="none" xmlns="http://www.w3.org/2000/svg">
<g id="g10">
<g id="g12">
<path id="path14" d="M34.8609 17.4999C34.8609 7.91166 27.0881 0.138832 17.4998 0.138832C7.9115 0.138832 0.138672 7.91166 0.138672 17.4999C0.138672 26.1654 6.48738 33.3477 14.7871 34.6501V22.5184H10.379V17.4999H14.7871V13.6751C14.7871 9.32394 17.379 6.92052 21.3447 6.92052C23.2441 6.92052 25.2309 7.2596 25.2309 7.2596V11.5321H23.0417C20.885 11.5321 20.2125 12.8703 20.2125 14.2433V17.4999H25.0275L24.2577 22.5184H20.2125V34.6501C28.5122 33.3477 34.8609 26.1654 34.8609 17.4999Z" fill="#1877F2"/>
<path id="path16" d="M24.2576 22.5186L25.0273 17.5002H20.2123V14.2435C20.2123 12.8705 20.8849 11.5323 23.0416 11.5323H25.2308V7.25981C25.2308 7.25981 23.244 6.92073 21.3446 6.92073C17.3789 6.92073 14.787 9.32416 14.787 13.6753V17.5002H10.3789V22.5186H14.787V34.6504C15.6709 34.789 16.5768 34.8613 17.4997 34.8613C18.4225 34.8613 19.3285 34.789 20.2123 34.6504V22.5186H24.2576Z" fill="white"/>
</g>
</g>
</svg>
