<svg width="35" height="35" viewBox="0 0 35 35" fill="none" xmlns="http://www.w3.org/2000/svg">
<g id="Group 108">
<path id="Vector" d="M34.5135 17.8948C34.5135 16.6637 34.403 15.48 34.1978 14.3436H17.8467V21.0593H27.1902C26.7877 23.2294 25.5645 25.0681 23.7258 26.2992V30.6553H29.3367C32.6195 27.6329 34.5135 23.1821 34.5135 17.8948Z" fill="#4285F4"/>
<path id="Vector_2" d="M17.8471 34.8613C22.5347 34.8613 26.4646 33.3067 29.3371 30.6552L23.7263 26.2991C22.1717 27.3407 20.183 27.9563 17.8471 27.9563C13.3253 27.9563 9.49797 24.9023 8.13275 20.7987H2.33252V25.2968C5.18923 30.9708 11.0605 34.8613 17.8471 34.8613Z" fill="#34A853"/>
<path id="Vector_3" d="M8.13268 20.7984C7.78545 19.7567 7.58816 18.644 7.58816 17.4998C7.58816 16.3555 7.78545 15.2428 8.13268 14.2011V9.703H2.33245C1.11716 12.1223 0.484769 14.7924 0.485841 17.4998C0.485841 20.3012 1.15662 22.9528 2.33245 25.2966L8.13268 20.7984Z" fill="#FBBC05"/>
<path id="Vector_4" d="M17.8471 7.0434C20.3961 7.0434 22.6846 7.91936 24.4839 9.6397L29.4634 4.66018C26.4567 1.85871 22.5268 0.138367 17.8471 0.138367C11.0605 0.138367 5.18923 4.02886 2.33252 9.70283L8.13275 14.201C9.49797 10.0974 13.3253 7.0434 17.8471 7.0434Z" fill="#EA4335"/>
</g>
</svg>
