<svg width="401" height="20" viewBox="0 0 401 20" fill="none" xmlns="http://www.w3.org/2000/svg">
<line x1="0.5" y1="9.5" x2="182.5" y2="9.5" stroke="#333333"/>
<path d="M196.82 4.536C197.663 4.536 198.431 4.68267 199.124 4.976C199.817 5.264 200.412 5.67467 200.908 6.208C201.409 6.736 201.793 7.36267 202.06 8.088C202.332 8.808 202.468 9.60267 202.468 10.472C202.468 11.32 202.332 12.0987 202.06 12.808C201.793 13.5173 201.412 14.1333 200.916 14.656C200.42 15.1733 199.825 15.576 199.132 15.864C198.444 16.1467 197.679 16.288 196.836 16.288C195.999 16.288 195.236 16.144 194.548 15.856C193.86 15.5627 193.265 15.1493 192.764 14.616C192.268 14.0827 191.884 13.456 191.612 12.736C191.345 12.0107 191.212 11.2133 191.212 10.344C191.212 9.496 191.345 8.72 191.612 8.016C191.884 7.30667 192.265 6.69333 192.756 6.176C193.252 5.65333 193.844 5.25067 194.532 4.968C195.22 4.68 195.983 4.536 196.82 4.536ZM200.556 11.512C200.556 10.808 200.487 10.1413 200.348 9.512C200.209 8.87733 200.012 8.30133 199.756 7.784C199.505 7.26133 199.207 6.81067 198.86 6.432C198.513 6.048 198.129 5.752 197.708 5.544C197.292 5.336 196.855 5.232 196.396 5.232C195.745 5.232 195.177 5.39733 194.692 5.728C194.207 6.05333 193.828 6.52 193.556 7.128C193.284 7.736 193.148 8.464 193.148 9.312C193.148 10.016 193.217 10.6853 193.356 11.32C193.495 11.9547 193.689 12.5333 193.94 13.056C194.191 13.5787 194.489 14.032 194.836 14.416C195.183 14.7947 195.561 15.088 195.972 15.296C196.388 15.504 196.828 15.608 197.292 15.608C197.943 15.608 198.513 15.4453 199.004 15.12C199.495 14.7893 199.876 14.32 200.148 13.712C200.42 13.0987 200.556 12.3653 200.556 11.512ZM206.197 11.832C206.197 11.0747 206.309 10.4373 206.533 9.92C206.757 9.39733 207.048 9.00267 207.405 8.736C207.763 8.464 208.144 8.328 208.549 8.328C209.029 8.328 209.4 8.46133 209.661 8.728C209.928 8.99467 210.061 9.36 210.061 9.824C210.061 10.192 209.984 10.472 209.829 10.664C209.675 10.8507 209.472 10.944 209.221 10.944C208.971 10.944 208.776 10.8747 208.637 10.736C208.504 10.592 208.437 10.3973 208.437 10.152V9.88C208.432 9.69867 208.387 9.56533 208.301 9.48C208.221 9.38933 208.083 9.344 207.885 9.344C207.656 9.344 207.432 9.43467 207.213 9.616C207 9.79733 206.824 10.072 206.685 10.44C206.547 10.808 206.477 11.272 206.477 11.832H206.197ZM206.389 8.8L206.477 10.688V14.904C206.477 15.0373 206.507 15.1387 206.565 15.208C206.629 15.2773 206.733 15.3227 206.877 15.344L207.597 15.448C207.709 15.464 207.792 15.496 207.845 15.544C207.899 15.5867 207.925 15.6507 207.925 15.736C207.925 15.816 207.893 15.88 207.829 15.928C207.771 15.976 207.68 16 207.557 16H204.173C204.056 16 203.968 15.976 203.909 15.928C203.851 15.88 203.821 15.816 203.821 15.736C203.821 15.672 203.843 15.6187 203.885 15.576C203.933 15.528 204.003 15.4907 204.093 15.464L204.477 15.384C204.579 15.352 204.656 15.3013 204.709 15.232C204.763 15.1627 204.789 15.056 204.789 14.912V9.936C204.789 9.81867 204.768 9.73333 204.725 9.68C204.688 9.62667 204.624 9.59467 204.533 9.584L203.989 9.56C203.899 9.54933 203.835 9.52533 203.797 9.488C203.76 9.45067 203.741 9.4 203.741 9.336C203.741 9.26667 203.763 9.21067 203.805 9.168C203.853 9.12 203.936 9.07733 204.053 9.04L205.365 8.576C205.573 8.50133 205.728 8.45333 205.829 8.432C205.931 8.40533 206.011 8.392 206.069 8.392C206.165 8.392 206.237 8.424 206.285 8.488C206.339 8.54667 206.373 8.65067 206.389 8.8Z" fill="black"/>
<line x1="218.5" y1="9.5" x2="400.5" y2="9.5" stroke="#333333"/>
</svg>
