<svg xmlns="http://www.w3.org/2000/svg" width="33" height="32" viewBox="0 0 33 32" fill="none">
<g clip-path="url(#clip0_954_982)">
  <rect x="0.569214" width="32" height="32" rx="8" fill="#BF4C9A"/>
  <path d="M10.0934 20.2971C11.8067 16.6229 13.802 13.5475 16.0791 11.0708C18.3866 8.59407 20.7119 6.72975 23.0549 5.47779C25.4283 4.22583 27.5552 3.59985 29.4358 3.59985C31.5893 3.59985 32.9695 4.18501 33.5764 5.35532C34.2263 6.49841 34.0817 8.07696 33.1425 10.091C32.4191 11.6423 31.4639 12.8126 30.2769 13.6019C29.1203 14.3912 27.9353 14.7858 26.722 14.7858C25.5694 14.7858 24.8231 14.5 24.483 13.9285C24.1859 13.3297 24.2862 12.4316 24.784 11.2341L25.317 10.091C25.7309 9.1384 25.8333 8.43077 25.6245 7.9681C25.4156 7.50542 24.8106 7.27408 23.8097 7.27408C22.6268 7.27408 21.2609 7.76397 19.7121 8.74376C18.1633 9.72356 16.568 11.1932 14.9263 13.1528C13.3149 15.1124 11.8302 17.5483 10.4722 20.4604L10.0934 20.2971ZM17.9728 4.37552L2.47676 37.6068C2.33715 37.9062 2.30758 38.1647 2.38804 38.3825C2.51152 38.573 2.73622 38.7091 3.06212 38.7907L7.29983 39.3623C7.4388 39.3895 7.53226 39.4167 7.58024 39.4439C7.62821 39.4711 7.63316 39.5256 7.59508 39.6072C7.55701 39.6889 7.49495 39.7569 7.40891 39.8113C7.33555 39.8386 7.22305 39.8522 7.07139 39.8522H-10.718C-10.8394 39.8522 -10.9328 39.825 -10.9984 39.7705C-11.0337 39.7161 -11.0387 39.6616 -11.0133 39.6072C-10.9752 39.5256 -10.898 39.4575 -10.7816 39.4031C-10.6652 39.3487 -10.5097 39.3078 -10.315 39.2806L-7.29641 38.954C-6.86402 38.8724 -6.53393 38.7499 -6.30612 38.5866C-6.03529 38.3961 -5.84277 38.1784 -5.72855 37.9334L8.45391 7.51902C8.51737 7.38294 8.52263 7.27408 8.46971 7.19243C8.45981 7.08356 8.36387 7.02913 8.18188 7.02913H4.5421C4.45111 7.02913 4.38797 7.00191 4.35269 6.94748C4.31741 6.89305 4.31246 6.83861 4.33784 6.78418C4.37592 6.70253 4.43798 6.63449 4.52402 6.58006C4.61007 6.52562 4.73526 6.4848 4.89961 6.45758L16.9421 4.04893C17.1798 3.99449 17.3442 3.96728 17.4352 3.96728C17.5692 3.94006 17.6817 3.92645 17.7727 3.92645C17.9243 3.92645 18.0051 3.98088 18.015 4.08975C18.0376 4.1714 18.0235 4.26666 17.9728 4.37552Z" fill="#FDF3F3"/>
</g>
<defs>
  <clipPath id="clip0_954_982">
    <rect x="0.569214" width="32" height="32" rx="8" fill="white"/>
  </clipPath>
</defs>
</svg>